<?xml version="1.0" standalone="no"?>
<!DOCTYPE svg PUBLIC "-//W3C//DTD SVG 20010904//EN"
 "http://www.w3.org/TR/2001/REC-SVG-20010904/DTD/svg10.dtd">
<svg version="1.0" xmlns="http://www.w3.org/2000/svg"
 width="223.000000pt" height="226.000000pt" viewBox="0 0 223.000000 226.000000"
 preserveAspectRatio="xMidYMid meet">
<metadata>
Created by potrace 1.15, written by Peter Selinger 2001-2017
</metadata>
<g transform="translate(0.000000,226.000000) scale(0.100000,-0.100000)"
fill="#000000" stroke="none">
<path d="M993 2249 c-520 -61 -924 -472 -984 -1003 -27 -239 32 -492 168 -720
61 -102 230 -276 331 -341 276 -177 619 -228 929 -139 113 32 269 109 355 174
134 102 299 304 352 432 l16 37 -92 50 -93 50 -41 -80 c-116 -223 -312 -397
-530 -470 -294 -99 -665 -35 -913 156 -76 59 -78 59 -143 31 l-38 -16 0 82
c-1 80 -2 85 -40 143 -90 135 -140 301 -147 492 -9 213 24 371 114 545 183
356 535 563 968 569 94 2 97 2 40 9 -77 10 -162 10 -252 -1z"/>
<path d="M1743 1858 l-53 -10 0 -180 0 -180 23 6 c12 3 27 6 34 6 27 0 43 32
43 87 l0 55 51 -61 c52 -62 65 -69 100 -51 30 17 24 58 -17 102 l-36 40 20 21
c48 52 53 107 13 148 -25 25 -37 29 -78 28 -26 -1 -72 -6 -100 -11z"/>
<path d="M1615 1835 c-5 -2 -45 -11 -87 -20 l-78 -16 0 -180 c0 -108 4 -179
10 -179 5 0 49 9 97 20 92 21 113 36 113 78 0 23 -3 24 -37 17 -21 -3 -48 -9
-60 -12 -21 -5 -23 -2 -23 34 0 39 0 40 48 49 44 8 47 11 50 42 4 35 0 37 -60
23 l-38 -9 0 34 c0 26 4 34 18 34 9 0 34 5 55 11 34 9 37 13 37 44 0 34 -11
42 -45 30z"/>
<path d="M1240 1754 c-80 -35 -124 -106 -124 -204 0 -110 47 -163 144 -164 57
0 133 36 148 70 7 14 12 60 12 103 l0 78 -72 -17 c-70 -16 -73 -18 -73 -46 0
-24 5 -30 28 -32 22 -3 27 -8 27 -32 0 -29 -15 -40 -55 -40 -34 0 -55 36 -55
93 0 42 5 54 34 83 31 31 40 34 90 34 50 0 58 3 68 25 9 21 8 28 -7 45 -22 25
-112 27 -165 4z"/>
<path d="M903 1659 l-62 -19 -3 -190 c-2 -105 -2 -190 0 -190 13 0 78 33 84
43 4 7 8 39 8 72 l0 59 53 -52 c35 -35 61 -52 78 -52 62 0 67 61 10 113 -34
31 -38 37 -25 48 26 21 44 66 44 108 0 80 -62 100 -187 60z"/>
<path d="M718 1599 c-16 -9 -18 -27 -18 -153 0 -151 -6 -172 -47 -164 -16 3
-18 17 -21 130 -3 146 -9 157 -67 138 l-35 -12 0 -134 c0 -161 11 -198 62
-212 64 -17 138 12 182 72 19 25 21 41 21 184 l0 157 -30 2 c-16 2 -38 -2 -47
-8z"/>
<path d="M355 1471 c-27 -10 -62 -24 -77 -30 l-28 -11 0 -200 0 -200 33 13
c17 8 57 24 87 37 139 59 189 146 119 211 l-31 29 21 26 c24 30 28 91 8 117
-19 26 -75 30 -132 8z"/>
<path d="M1773 1461 c-151 -52 -222 -166 -211 -338 6 -92 39 -146 111 -182
122 -60 327 1 357 107 11 42 14 232 3 232 -5 0 -56 -10 -115 -22 l-108 -22 0
-42 c0 -49 18 -69 56 -60 24 6 25 5 22 -26 -4 -41 -43 -63 -94 -53 -102 19
-98 211 6 267 28 15 52 18 122 16 77 -2 89 0 102 17 31 40 13 89 -39 111 -47
19 -149 17 -212 -5z"/>
<path d="M1455 1372 c-66 -23 -75 -42 -75 -172 l-1 -105 -25 30 c-99 116 -148
166 -168 171 -13 3 -48 -2 -80 -11 l-56 -16 0 -275 c0 -151 4 -274 8 -274 29
0 105 36 122 57 17 22 20 41 20 144 0 66 4 119 8 119 5 0 29 -24 53 -52 104
-126 140 -158 175 -158 20 0 44 9 61 24 l28 24 3 256 c2 205 0 256 -10 256 -7
-1 -35 -9 -63 -18z"/>
<path d="M925 1232 c-102 -43 -104 -50 -105 -356 l0 -238 24 6 c56 14 116 47
133 72 16 25 18 57 21 281 4 285 8 269 -73 235z"/>
<path d="M668 1140 c-9 -6 -49 -67 -90 -137 l-73 -128 -3 97 -3 96 -82 -33
-82 -33 -3 -277 c-2 -221 0 -276 10 -272 109 44 137 61 147 90 6 16 11 71 11
121 l0 91 81 -82 c74 -76 84 -83 120 -83 51 0 89 35 89 81 0 25 -13 45 -70
103 l-70 73 65 102 c78 124 83 138 55 174 -23 29 -68 36 -102 17z"/>
<path d="M2080 937 c-56 -28 -64 -117 -13 -157 52 -41 142 -15 157 46 21 83
-66 150 -144 111z m101 -26 c16 -13 23 -29 23 -55 0 -76 -83 -108 -132 -51
-27 32 -25 74 5 107 21 24 74 23 104 -1z"/>
</g>
</svg>
